<?xml version="1.0" standalone="no"?>
<!DOCTYPE svg PUBLIC "-//W3C//DTD SVG 20010904//EN"
 "http://www.w3.org/TR/2001/REC-SVG-20010904/DTD/svg10.dtd">
<svg version="1.0" xmlns="http://www.w3.org/2000/svg"
 width="24.000000pt" height="24.000000pt" viewBox="0 0 24.000000 24.000000"
 preserveAspectRatio="xMidYMid meet">

<g transform="translate(0.000000,24.000000) scale(0.100000,-0.100000)"
fill="#000000" stroke="none">
<path d="M84 209 c-10 -17 13 -36 27 -22 12 12 4 33 -11 33 -5 0 -12 -5 -16
-11z"/>
<path d="M40 163 c0 -5 6 -33 13 -63 8 -31 12 -61 9 -68 -6 -18 18 -15 24 3 8
20 34 19 50 -2 16 -23 24 -14 13 14 -6 17 -16 23 -38 23 -27 0 -30 4 -41 50
-7 28 -16 50 -21 50 -5 0 -9 -3 -9 -7z"/>
<path d="M85 133 c9 -50 12 -53 45 -53 22 0 30 -6 39 -31 15 -43 32 -28 18 16
-8 27 -16 35 -33 35 -18 0 -24 7 -30 35 -5 26 -11 35 -26 35 -18 0 -19 -4 -13
-37z"/>
</g>
</svg>
