<?xml version="1.0" encoding="iso-8859-1"?>
<!-- Generator: Adobe Illustrator 18.1.1, SVG Export Plug-In . SVG Version: 6.00 Build 0)  -->
<svg xmlns="http://www.w3.org/2000/svg" xmlns:xlink="http://www.w3.org/1999/xlink" version="1.1" id="mdi-current-ac" width="24" height="24" viewBox="0 0 24 24">

<g>

	<path style="fill:#030104;" d="M8,0C3.582,0,0,3.582,0,8s3.582,8,8,8s8-3.582,8-8S12.418,0,8,0z M8,15c-3.866,0-7-3.134-7-7
		s3.134-7,7-7s7,3.134,7,7S11.866,15,8,15z M16.5,21C13.5,21 12.31,16.76 11.05,12.28C10.14,9.04 9,5 7.5,5C4.11,5 4,11.93 4,12H2C2,11.63 2.06,3 7.5,3C10.5,3 11.71,7.25 12.97,11.74C13.83,14.8 15,19 16.5,19C19.94,19 20.03,12.07 20.03,12H22.03C22.03,12.37 21.97,21 16.5,21Z" />
		
</g>
<g>
</g>
<g>
</g>
<g>
</g>
<g>
</g>
<g>
</g>
<g>
</g>
<g>
</g>
<g>
</g>
<g>
</g>
<g>
</g>
<g>
</g>
<g>
</g>
<g>
</g>
<g>
</g>
<g>
</g>
</svg>
