<?xml version="1.0" standalone="no"?>
<!DOCTYPE svg PUBLIC "-//W3C//DTD SVG 20010904//EN"
 "http://www.w3.org/TR/2001/REC-SVG-20010904/DTD/svg10.dtd">
<svg version="1.0" xmlns="http://www.w3.org/2000/svg"
 width="18.000000pt" height="18.000000pt" viewBox="0 0 30.000000 30.000000"
 preserveAspectRatio="xMidYMid meet">

<g transform="translate(0.000000,30.000000) scale(0.100000,-0.100000)"
fill="#fff" stroke="none">
<path d="M64 229 c-3 -6 9 -26 27 -45 l33 -34 -34 -35 c-26 -27 -31 -38 -22
-47 9 -9 20 -4 47 22 l35 34 35 -34 c27 -26 38 -31 47 -22 9 9 4 20 -22 47
l-34 35 34 35 c26 27 31 38 22 47 -9 9 -20 4 -47 -22 l-35 -34 -33 32 c-36 35
-42 37 -53 21z"/>
</g>
</svg>
