<?xml version="1.0" standalone="no"?>
<!DOCTYPE svg PUBLIC "-//W3C//DTD SVG 20010904//EN"
 "http://www.w3.org/TR/2001/REC-SVG-20010904/DTD/svg10.dtd">
<svg version="1.0" xmlns="http://www.w3.org/2000/svg"
 width="64.000000pt" height="64.000000pt" viewBox="0 0 64.000000 64.000000"
 preserveAspectRatio="xMidYMid meet">

<g transform="translate(0.000000,64.000000) scale(0.100000,-0.100000)"
fill="#000000" stroke="none">
<path d="M328 629 c-47 -27 -42 -103 8 -115 81 -20 127 77 54 116 -23 12 -40
12 -62 -1z"/>
<path d="M224 448 c-82 -41 -143 -135 -99 -152 16 -6 36 11 61 54 16 26 61 56
71 47 2 -3 -2 -35 -8 -71 l-13 -67 57 -57 c41 -41 64 -76 85 -127 28 -70 56
-93 68 -60 9 22 -40 144 -81 205 -29 43 -32 54 -25 85 10 45 16 52 24 27 4
-11 28 -29 56 -41 58 -25 76 -26 84 -6 5 15 -15 33 -65 55 -19 9 -33 30 -50
73 -24 61 -25 62 -64 64 -28 2 -58 -7 -101 -29z"/>
<path d="M226 205 c-3 -9 -6 -24 -6 -34 0 -9 -20 -46 -45 -81 -39 -55 -43 -66
-31 -78 18 -19 27 -13 80 57 58 75 64 100 33 129 -21 20 -25 21 -31 7z"/>
</g>
</svg>
