<?xml version="1.0" standalone="no"?>
<!DOCTYPE svg PUBLIC "-//W3C//DTD SVG 20010904//EN"
 "http://www.w3.org/TR/2001/REC-SVG-20010904/DTD/svg10.dtd">
<svg version="1.0" xmlns="http://www.w3.org/2000/svg"
 width="64.000000pt" height="64.000000pt" viewBox="0 0 64.000000 64.000000"
 preserveAspectRatio="xMidYMid meet">

<g transform="translate(0.000000,64.000000) scale(0.100000,-0.100000)"
fill="#000000" stroke="none">
<path d="M203 430 l-103 -100 0 -103 c0 -67 4 -107 12 -115 17 -17 399 -17
416 0 8 8 12 48 12 114 0 86 -3 105 -20 127 -15 19 -20 40 -20 91 l0 66 -50 0
c-45 0 -50 -2 -50 -22 0 -21 -2 -20 -33 10 -18 18 -39 32 -47 32 -8 0 -61 -45
-117 -100z"/>
</g>
</svg>
