<?xml version="1.0" standalone="no"?>
<!DOCTYPE svg PUBLIC "-//W3C//DTD SVG 20010904//EN"
 "http://www.w3.org/TR/2001/REC-SVG-20010904/DTD/svg10.dtd">
<svg version="1.0" xmlns="http://www.w3.org/2000/svg"
 width="50.000000pt" height="50.000000pt" viewBox="0 0 50.000000 50.000000"
 preserveAspectRatio="xMidYMid meet">

<g transform="translate(0.000000,50.000000) scale(0.100000,-0.100000)"
fill="#000000" stroke="none">
<path d="M130 389 c-109 -85 -144 -120 -106 -106 14 6 16 -8 16 -128 l0 -135
210 0 210 0 0 135 c0 120 2 134 16 128 37 -14 3 20 -106 106 -63 50 -117 91
-120 90 -3 0 -57 -40 -120 -90z m145 -59 c0 -18 -6 -26 -23 -28 -13 -2 -25 3
-28 12 -10 26 4 48 28 44 17 -2 23 -10 23 -28z m19 -72 c18 -25 21 -89 7 -104
-5 -5 -11 -27 -13 -49 -3 -38 -4 -40 -38 -40 -34 0 -35 2 -38 40 -2 22 -8 44
-13 49 -14 15 -11 79 7 104 10 14 26 22 44 22 18 0 34 -8 44 -22z"/>
</g>
</svg>
