<?xml version="1.0" standalone="no"?>
<!DOCTYPE svg PUBLIC "-//W3C//DTD SVG 20010904//EN"
 "http://www.w3.org/TR/2001/REC-SVG-20010904/DTD/svg10.dtd">
<svg version="1.0" xmlns="http://www.w3.org/2000/svg"
 width="96.000000pt" height="96.000000pt" viewBox="0 0 96.000000 96.000000"
 preserveAspectRatio="xMidYMid meet">

<g transform="translate(0.000000,96.000000) scale(0.100000,-0.100000)"
fill="#3A348C" stroke="none">
<path d="M432 877 c-28 -30 -28 -68 1 -95 30 -28 68 -28 95 1 28 30 28 68 -1
95 -30 28 -68 28 -95 -1z"/>
<path d="M349 714 c-22 -24 -24 -34 -27 -153 -3 -106 -1 -129 12 -140 9 -7 23
-11 31 -7 12 4 15 28 17 118 2 62 5 -15 8 -171 4 -256 7 -285 22 -295 13 -8
23 -8 35 0 16 10 18 32 21 178 1 99 6 166 12 166 6 0 10 -64 10 -163 0 -113 4
-167 12 -175 18 -18 46 -14 58 7 6 12 11 128 12 293 1 150 4 222 5 160 3 -88
7 -114 18 -119 9 -3 22 1 31 8 13 11 15 34 12 140 -3 119 -5 129 -27 153 -23
25 -29 26 -131 26 -102 0 -108 -1 -131 -26z"/>
</g>
</svg>
