<?xml version="1.0" standalone="no"?>
<!DOCTYPE svg PUBLIC "-//W3C//DTD SVG 20010904//EN"
 "http://www.w3.org/TR/2001/REC-SVG-20010904/DTD/svg10.dtd">
<svg version="1.0" xmlns="http://www.w3.org/2000/svg"
 width="67.000000pt" height="67.000000pt" viewBox="0 0 67.000000 67.000000"
 preserveAspectRatio="xMidYMid meet">

<g transform="translate(0.000000,67.000000) scale(0.100000,-0.100000)"
fill="000" stroke="none">
<path d="M430 651 c0 -5 11 -29 25 -52 39 -68 32 -91 -10 -36 -51 66 -105 76
-105 20 0 -20 16 -42 63 -85 l62 -57 -23 -23 c-19 -19 -37 -24 -116 -29 -106
-7 -148 -25 -181 -77 -17 -26 -26 -31 -57 -32 -21 0 -38 -3 -38 -7 0 -3 11
-21 25 -39 28 -36 30 -56 14 -103 -24 -68 46 -146 100 -112 11 7 10 14 -4 39
-24 41 -15 57 39 71 35 9 51 19 66 44 11 17 20 39 20 49 0 11 6 15 19 11 11
-3 49 5 86 17 75 25 81 23 117 -41 22 -39 48 -52 48 -24 0 9 -10 34 -21 57
l-21 42 32 -27 c30 -25 50 -28 50 -6 0 5 -23 26 -52 46 l-52 37 39 8 c22 5 42
13 46 19 12 20 -4 61 -38 94 -26 26 -39 50 -53 105 -10 39 -24 77 -30 85 -14
16 -50 20 -50 6z"/>
</g>
</svg>
