<?xml version="1.0" standalone="no"?>
<!DOCTYPE svg PUBLIC "-//W3C//DTD SVG 20010904//EN"
 "http://www.w3.org/TR/2001/REC-SVG-20010904/DTD/svg10.dtd">
<svg version="1.0" xmlns="http://www.w3.org/2000/svg"
 width="64.000000pt" height="64.000000pt" viewBox="0 0 64.000000 64.000000"
 preserveAspectRatio="xMidYMid meet">

<g transform="translate(0.000000,64.000000) scale(0.100000,-0.100000)"
fill="#1832bb" stroke="none">
<path d="M449 582 c-24 -21 -32 -38 -34 -66 -2 -34 -15 -51 -131 -167 -113
-113 -133 -129 -162 -129 -64 0 -108 -74 -79 -134 40 -86 177 -58 177 36 0 29
16 49 129 162 116 116 133 129 167 131 28 2 45 10 66 34 43 48 36 112 -8 70
-49 -46 -101 6 -55 55 42 44 -22 51 -70 8z m-277 -467 c-2 -15 -15 -27 -32
-34 -24 -8 -31 -6 -48 12 -42 48 17 107 64 65 14 -12 20 -27 16 -43z"/>
</g>
</svg>
